<?xml version="1.0" standalone="no"?>
<!DOCTYPE svg PUBLIC "-//W3C//DTD SVG 20010904//EN"
 "http://www.w3.org/TR/2001/REC-SVG-20010904/DTD/svg10.dtd">
<svg version="1.0" xmlns="http://www.w3.org/2000/svg"
 width="700.000000pt" height="700.000000pt" viewBox="0 0 700.000000 700.000000"
 preserveAspectRatio="xMidYMid meet">
<metadata>
Created by potrace 1.11, written by Peter Selinger 2001-2013
</metadata>
<g transform="translate(0.000000,700.000000) scale(0.100000,-0.100000)"
fill="#000000" stroke="none">
<path d="M721 6274 l-21 -27 0 -2747 0 -2747 21 -27 21 -26 1971 2 1972 3 67
32 c119 56 197 159 215 283 5 30 8 1162 7 2515 l-1 2460 -22 56 c-41 108 -122
186 -234 227 l-57 22 -1959 0 -1959 0 -21 -26z m525 -371 l-1 -258 -202 -2
-203 -2 0 260 0 259 204 0 203 0 -1 -257z m3425 245 c54 -16 113 -69 140 -126
l24 -47 -1 -2475 c0 -2203 -2 -2479 -16 -2510 -24 -56 -68 -101 -123 -126
l-50 -24 -1627 0 c-896 0 -1628 3 -1628 8 0 13 -1 4750 0 5035 l0 277 1621 0
c1202 0 1632 -3 1660 -12z m-3424 -925 l-2 -276 -202 -1 -203 -1 0 277 0 277
33 3 c17 2 109 2 204 0 l171 -3 -1 -276z m1 -693 l-1 -277 -203 -1 -204 -1 0
279 0 279 204 -1 204 0 0 -278z m-21 -419 l21 -1 -1 -277 -2 -277 -190 1
c-104 1 -196 2 -202 2 -10 1 -13 63 -13 275 l0 275 28 3 c22 2 261 2 359 -1z
m19 -972 l1 -276 -203 0 -204 0 0 277 0 277 203 -1 202 -1 1 -276z m0 -693 l2
-276 -42 -1 c-42 -1 -276 0 -333 0 l-33 1 0 278 0 277 202 -1 203 -2 1 -276z
m0 -695 l-1 -276 -202 -2 -203 -2 0 278 0 279 204 0 204 0 -2 -277z m0 -664
l-1 -242 -202 -3 -203 -2 0 244 0 245 103 3 c56 2 148 2 203 0 l102 -3 -2
-242z"/>
<path d="M2081 5146 l-22 -23 0 -637 c0 -437 4 -643 11 -657 6 -11 21 -24 33
-28 12 -4 446 -7 964 -7 l942 1 23 23 23 22 0 628 c1 346 -3 639 -8 655 -5 15
-17 32 -27 37 -12 6 -368 10 -968 10 l-949 0 -22 -24z m1833 -648 c-1 -293 -2
-540 -3 -548 -1 -14 -97 -15 -853 -15 l-853 0 -3 548 -2 547 857 0 858 0 -1
-532z"/>
<path d="M2595 4742 c-57 -6 -82 -68 -46 -113 l19 -24 485 0 c463 0 486 1 506
19 26 24 27 66 2 97 l-19 23 -458 1 c-253 0 -472 -1 -489 -3z"/>
<path d="M2636 4360 c-61 -4 -71 -8 -89 -32 -17 -22 -19 -33 -11 -55 18 -53
20 -53 536 -51 464 3 478 4 492 23 37 49 5 115 -56 116 -232 3 -819 3 -872 -1z"/>
<path d="M5655 6285 c-62 -29 -74 -51 -205 -367 -72 -172 -135 -322 -140 -333
-5 -11 -46 -107 -90 -214 l-80 -195 2 -2090 3 -2091 31 -65 c53 -111 140 -186
250 -214 80 -20 506 -22 579 -3 101 28 175 79 228 160 72 109 66 -67 67 2233
l0 2072 -222 532 c-211 508 -223 533 -259 557 -45 29 -121 38 -164 18z m80
-133 c14 -9 166 -374 160 -381 -3 -2 -83 -5 -178 -5 -144 0 -172 3 -169 15 9
41 156 379 166 379 6 0 16 -4 21 -8z m261 -612 c20 -47 42 -98 49 -115 50
-115 82 -196 84 -210 1 -7 -142 -10 -409 -11 -225 0 -410 3 -410 7 0 4 38 99
85 211 l86 204 240 -1 240 0 35 -85z m157 -479 c4 -1 7 -712 7 -1581 l0 -1580
-437 3 -438 2 -2 1577 -1 1577 21 3 c18 2 825 1 850 -1z m-15 -3301 l23 0 -3
-152 -3 -153 -435 0 -435 0 -2 152 -2 152 37 3 c28 2 677 1 820 -2z m-29 -450
l53 0 -4 -154 c-3 -128 -7 -158 -21 -174 -9 -10 -17 -23 -17 -28 0 -15 -60
-69 -100 -90 -31 -17 -63 -19 -286 -21 -210 -2 -257 0 -291 13 -60 24 -108 67
-134 121 -21 42 -24 65 -26 188 l-2 140 26 5 c22 4 361 4 802 0z"/>
<path d="M5664 4060 c-92 -37 -175 -237 -200 -480 -20 -195 -1 -486 40 -615 1
-5 6 -23 11 -40 4 -16 21 -57 37 -90 116 -238 305 -172 387 135 18 68 24 100
37 195 9 64 11 334 3 410 -23 216 -94 409 -171 465 -43 31 -98 39 -144 20z
m98 -190 c34 -66 63 -179 74 -280 15 -139 9 -392 -11 -500 -25 -129 -82 -264
-108 -254 -36 13 -97 198 -113 344 -14 124 -8 366 12 483 24 141 78 273 107
265 7 -2 24 -28 39 -58z"/>
</g>
</svg>
