<svg xmlns="http://www.w3.org/2000/svg" xmlns:xlink="http://www.w3.org/1999/xlink" fill="#000000" version="1.1" x="0" y="0" viewBox="0 0 100 100" xml:space="preserve" enable-background="new 0 0 100 100">
  <path d="M83.7 10.98C83.23 10.36 82.51 10 81.72 10h0c-0.78 0-1.5 0.36-1.97 0.98 -0.05 0.07-0.09 0.14-0.13 0.22l-6.1 14.65c-0.05 0.12-0.08 0.25-0.08 0.38v58.28c0 3.03 2.46 5.49 5.49 5.49h5.58C87.54 90 90 87.54 90 84.51V26.23c0-0.13-0.03-0.26-0.08-0.38L83.82 11.2C83.79 11.12 83.75 11.05 83.7 10.98zM81.41 12.12C81.52 12.02 81.65 12 81.72 12c0.07 0 0.2 0.02 0.32 0.12l2.29 5.51h-5.22L81.41 12.12zM87.68 25.67H75.77l2.52-6.05c0.02 0 0.04 0.01 0.06 0.01h6.75c0.02 0 0.04-0.01 0.06-0.01L87.68 25.67zM88 27.67v45.17H75.45V27.67H88zM75.45 74.83H88v4.42H75.45V74.83zM84.51 88h-5.57c-1.92 0-3.49-1.56-3.49-3.49V81.25H88v3.26C88 86.44 86.44 88 84.51 88z"/>
  <path d="M81.72 61.55c2.63 0 3.83-5.12 3.83-9.87s-1.2-9.87-3.82-9.87 -3.82 5.12-3.82 9.88S79.1 61.55 81.72 61.55zM81.71 43.8c0.51 0.14 1.84 2.78 1.84 7.88s-1.33 7.73-1.81 7.88c-0.51-0.14-1.84-2.78-1.84-7.88S81.23 43.94 81.71 43.8z"/>
  <path d="M11 90h54.69c2.96 0 5.37-2.41 5.37-5.37v-69.27c0-2.96-2.41-5.37-5.37-5.37H11c-0.55 0-1 0.45-1 1V89C10 89.55 10.45 90 11 90zM17.82 49.18H12v-7.93h5.82V49.18zM17.82 51.18v7.93H12v-7.93H17.82zM17.82 61.11v7.93H12V61.11H17.82zM17.82 39.25H12v-7.93h5.82V39.25zM12 71.04h5.82v7.93H12V71.04zM17.82 29.33H12v-7.93h5.82V29.33zM12 80.97h5.82V88H12V80.97zM69.07 15.36v69.27c0 1.86-1.51 3.37-3.37 3.37H19.82V11.99h45.87C67.55 11.99 69.07 13.5 69.07 15.36zM17.82 11.99v7.41H12v-7.41H17.82z"/>
  <path d="M30.41 45.79h26.51c0.55 0 1-0.45 1-1V27.12c0-0.55-0.45-1-1-1H30.41c-0.55 0-1 0.45-1 1v17.67C29.41 45.35 29.86 45.79 30.41 45.79zM31.41 28.12h24.51v15.67H31.41V28.12z"/>
  <path d="M50.19 32.23H37.14c-0.55 0-1 0.45-1 1s0.45 1 1 1h13.05c0.55 0 1-0.45 1-1S50.74 32.23 50.19 32.23z"/>
  <path d="M50.19 37.69H37.14c-0.55 0-1 0.45-1 1s0.45 1 1 1h13.05c0.55 0 1-0.45 1-1S50.74 37.69 50.19 37.69z"/>
</svg>